<?xml version="1.0" encoding="utf-8"?>
<!-- Generator: Adobe Illustrator 22.0.0, SVG Export Plug-In . SVG Version: 6.00 Build 0)  -->
<svg version="1.1" id="Layer_1" xmlns="http://www.w3.org/2000/svg" xmlns:xlink="http://www.w3.org/1999/xlink" x="0px" y="0px"
	 viewBox="0 0 33 33" style="enable-background:new 0 0 33 33;" xml:space="preserve">
<style type="text/css">
	.st0{fill:#606060;}
	.st1{fill:none;stroke:#606060;stroke-width:2;stroke-miterlimit:10;}
</style>
<g>
	<path class="st0" d="M16.1,2.9c7.4,0,13.5,6.1,13.5,13.5c0,7.4-6.1,13.5-13.5,13.5c-7.4,0-13.5-6.1-13.5-13.5
		C2.6,8.9,8.7,2.9,16.1,2.9 M16.1,0.9C7.6,0.9,0.6,7.8,0.6,16.4c0,8.6,6.9,15.5,15.5,15.5c8.6,0,15.5-6.9,15.5-15.5
		C31.6,7.8,24.7,0.9,16.1,0.9"/>
	<line class="st1" x1="21.8" y1="10.7" x2="10.4" y2="22.1"/>
	<line class="st1" x1="10.4" y1="10.7" x2="21.8" y2="22.1"/>
</g>
</svg>
